<svg width="239" height="124" viewBox="0 0 239 124" fill="none" xmlns="http://www.w3.org/2000/svg">
<g filter="url(#filter0_d_164_1430)">
<rect x="38" y="19" width="48.0599" height="48.0599" rx="12.3305" fill="#FBDB32"/>
<path d="M67.0836 30.0351C68.3385 32.4672 67.3842 35.4562 64.9521 36.7111C62.52 37.966 59.531 37.0117 58.2761 34.5795C57.0212 32.1474 57.9755 29.1585 60.4077 27.9036C62.8398 26.6487 65.8287 27.603 67.0836 30.0351ZM60.6101 33.3753C61.1999 34.5184 62.6047 34.9669 63.7478 34.3771C64.8909 33.7873 65.3395 32.3825 64.7496 31.2394C64.1598 30.0963 62.755 29.6477 61.6119 30.2376C60.4688 30.8274 60.0203 32.2322 60.6101 33.3753Z" fill="#171E3B"/>
<path d="M71.0924 32.5454C71.6533 32.5695 72.0941 33.0453 72.0096 33.6003C71.6886 35.7091 70.6575 37.6575 69.0709 39.1132C67.2335 40.7991 64.8016 41.6861 62.3102 41.579C59.8187 41.4718 57.4719 40.3794 55.786 38.5419C54.3303 36.9554 53.4702 34.9257 53.3315 32.7971C53.2949 32.2369 53.7749 31.8007 54.3358 31.8248L55.3275 31.8674C55.8884 31.8916 56.3151 32.3683 56.3804 32.9259C56.5352 34.2499 57.1027 35.5016 58.0154 36.4963C59.1588 37.7425 60.7504 38.4834 62.4401 38.5561C64.1298 38.6288 65.7792 38.0272 67.0254 36.8838C68.0201 35.9711 68.6929 34.7727 68.9609 33.4669C69.0737 32.9169 69.5398 32.4786 70.1007 32.5027L71.0924 32.5454Z" fill="#171E3B"/>
<path d="M47.4842 46.8576C48.8273 44.473 51.8492 43.6288 54.2337 44.9719C56.6183 46.315 57.4625 49.3369 56.1194 51.7215C54.7763 54.106 51.7544 54.9503 49.3699 53.6071C46.9853 52.264 46.1411 49.2421 47.4842 46.8576ZM53.8311 50.4325C54.4624 49.3118 54.0656 47.8915 52.9448 47.2602C51.8241 46.629 50.4038 47.0258 49.7725 48.1465C49.1413 49.2673 49.5381 50.6875 50.6588 51.3188C51.7796 51.9501 53.1998 51.5533 53.8311 50.4325Z" fill="#171E3B"/>
<path d="M47.5743 42.1541C47.2864 41.6722 47.4419 41.0425 47.9521 40.8083C49.8906 39.9182 52.0851 39.7097 54.173 40.2359C56.5911 40.8453 58.6681 42.3904 59.947 44.5311C61.2259 46.6719 61.6021 49.2331 60.9926 51.6512C60.4664 53.7391 59.2427 55.5726 57.5402 56.8577C57.0921 57.196 56.464 57.0345 56.176 56.5526L55.6669 55.7004C55.379 55.2184 55.543 54.6 55.9732 54.2392C56.9945 53.3826 57.7288 52.2209 58.0587 50.9118C58.472 49.2718 58.2169 47.5348 57.3496 46.0829C56.4822 44.631 55.0736 43.5831 53.4336 43.1698C52.1245 42.8399 50.7535 42.9358 49.5152 43.4292C48.9936 43.637 48.3713 43.4882 48.0834 43.0063L47.5743 42.1541Z" fill="#171E3B"/>
<path d="M72.2083 54.25C69.4716 54.2261 67.2725 51.9883 67.2963 49.2516C67.3202 46.5149 69.5581 44.3157 72.2948 44.3396C75.0315 44.3635 77.2306 46.6013 77.2068 49.338C77.1829 52.0747 74.945 54.2739 72.2083 54.25ZM72.2719 46.9658C70.9856 46.9546 69.9338 47.9882 69.9226 49.2745C69.9114 50.5607 70.945 51.6125 72.2312 51.6237C73.5175 51.635 74.5693 50.6014 74.5805 49.3151C74.5917 48.0289 73.5581 46.9771 72.2719 46.9658Z" fill="#171E3B"/>
<path d="M68.0522 56.5757C67.7694 57.0607 67.1429 57.2287 66.6913 56.8952C64.9755 55.628 63.7326 53.8073 63.1846 51.7251C62.5499 49.3135 62.8992 46.7485 64.1556 44.5945C65.412 42.4404 67.4727 40.8737 69.8843 40.239C71.9666 39.691 74.1632 39.8765 76.1109 40.7462C76.6235 40.9751 76.7856 41.6031 76.5028 42.0881L76.0026 42.9455C75.7198 43.4304 75.099 43.5857 74.5754 43.3834C73.3319 42.903 71.96 42.8214 70.6544 43.165C69.0189 43.5955 67.6213 44.658 66.7692 46.1189C65.917 47.5798 65.6801 49.3194 66.1106 50.955C66.4542 52.2606 67.2006 53.4145 68.2309 54.2604C68.6648 54.6166 68.8352 55.2333 68.5524 55.7183L68.0522 56.5757Z" fill="#171E3B"/>
</g>
<path d="M96.4532 52.8771C96.0111 52.8771 95.6662 52.7533 95.4186 52.5057C95.1887 52.2581 95.0737 51.9133 95.0737 51.4711V35.2094C95.0737 34.7496 95.1887 34.4048 95.4186 34.1749C95.6662 33.9273 96.0111 33.8035 96.4532 33.8035C96.8953 33.8035 97.2313 33.9273 97.4613 34.1749C97.7089 34.4048 97.8326 34.7496 97.8326 35.2094V51.4711C97.8326 51.9133 97.7177 52.2581 97.4878 52.5057C97.2579 52.7533 96.913 52.8771 96.4532 52.8771ZM102.756 52.8771C102.314 52.8771 101.969 52.7533 101.721 52.5057C101.491 52.2581 101.376 51.9133 101.376 51.4711V35.2094C101.376 34.7496 101.491 34.4048 101.721 34.1749C101.969 33.9273 102.314 33.8035 102.756 33.8035C103.198 33.8035 103.534 33.9273 103.764 34.1749C104.011 34.4048 104.135 34.7496 104.135 35.2094V51.4711C104.135 51.9133 104.02 52.2581 103.79 52.5057C103.56 52.7533 103.215 52.8771 102.756 52.8771ZM113.621 52.8771C113.179 52.8771 112.834 52.7533 112.586 52.5057C112.356 52.2581 112.242 51.9133 112.242 51.4711V36.2971H106.618C106.246 36.2971 105.954 36.1998 105.742 36.0053C105.53 35.7931 105.424 35.5013 105.424 35.1299C105.424 34.7585 105.53 34.4755 105.742 34.281C105.954 34.0864 106.246 33.9892 106.618 33.9892H120.598C120.987 33.9892 121.288 34.0864 121.5 34.281C121.712 34.4755 121.818 34.7585 121.818 35.1299C121.818 35.5013 121.712 35.7931 121.5 36.0053C121.288 36.1998 120.987 36.2971 120.598 36.2971H114.974V51.4711C114.974 51.9133 114.859 52.2581 114.629 52.5057C114.417 52.7533 114.081 52.8771 113.621 52.8771ZM125.171 52.8506C124.747 52.8506 124.419 52.7268 124.189 52.4792C123.96 52.2139 123.845 51.8514 123.845 51.3915V41.0456C123.845 40.5858 123.96 40.2321 124.189 39.9845C124.419 39.7369 124.747 39.6131 125.171 39.6131C125.595 39.6131 125.923 39.7369 126.153 39.9845C126.4 40.2321 126.524 40.5858 126.524 41.0456V51.3915C126.524 51.8514 126.409 52.2139 126.179 52.4792C125.949 52.7268 125.613 52.8506 125.171 52.8506ZM125.171 36.8542C124.64 36.8542 124.225 36.7215 123.924 36.4563C123.641 36.191 123.5 35.8196 123.5 35.3421C123.5 34.8469 123.641 34.4755 123.924 34.2279C124.225 33.9626 124.64 33.83 125.171 33.83C125.702 33.83 126.108 33.9626 126.391 34.2279C126.692 34.4755 126.842 34.8469 126.842 35.3421C126.842 35.8196 126.692 36.191 126.391 36.4563C126.108 36.7215 125.702 36.8542 125.171 36.8542ZM133.638 52.9302C132.736 52.9302 131.922 52.7533 131.197 52.3996C130.49 52.0459 129.933 51.5684 129.526 50.9671C129.119 50.3658 128.916 49.6849 128.916 48.9244C128.916 47.9694 129.155 47.2178 129.632 46.6695C130.127 46.1036 130.932 45.7057 132.046 45.4758C133.178 45.2282 134.699 45.1044 136.609 45.1044H137.856V46.7491H136.635C135.362 46.7491 134.354 46.811 133.611 46.9348C132.868 47.0586 132.338 47.2708 132.02 47.5715C131.719 47.8545 131.569 48.2524 131.569 48.7653C131.569 49.4373 131.799 49.9855 132.258 50.41C132.718 50.8168 133.355 51.0201 134.168 51.0201C134.823 51.0201 135.397 50.8698 135.893 50.5692C136.388 50.2508 136.777 49.8264 137.06 49.2958C137.361 48.7653 137.511 48.1551 137.511 47.4654V44.4147C137.511 43.4066 137.299 42.6815 136.874 42.2394C136.45 41.7972 135.751 41.5762 134.778 41.5762C134.213 41.5762 133.62 41.6469 133.001 41.7884C132.4 41.9299 131.772 42.1686 131.118 42.5047C130.817 42.6461 130.561 42.6903 130.348 42.6373C130.136 42.5842 129.968 42.4693 129.844 42.2924C129.72 42.0979 129.65 41.8945 129.632 41.6823C129.632 41.4524 129.685 41.2313 129.791 41.0191C129.915 40.8069 130.118 40.6477 130.401 40.5416C131.18 40.1702 131.949 39.9049 132.709 39.7457C133.47 39.5866 134.186 39.507 134.858 39.507C136.043 39.507 137.016 39.6927 137.776 40.0641C138.554 40.4355 139.129 41.0014 139.5 41.7619C139.872 42.5223 140.058 43.5039 140.058 44.7065V51.5242C140.058 51.9486 139.951 52.2846 139.739 52.5322C139.527 52.7621 139.218 52.8771 138.811 52.8771C138.422 52.8771 138.112 52.7621 137.882 52.5322C137.652 52.2846 137.537 51.9486 137.537 51.5242V49.7999H137.776C137.635 50.4542 137.369 51.0201 136.98 51.4976C136.609 51.9575 136.14 52.3112 135.574 52.5588C135.008 52.8064 134.363 52.9302 133.638 52.9302ZM144.278 52.8771C143.854 52.8771 143.527 52.7621 143.297 52.5322C143.067 52.2846 142.952 51.9486 142.952 51.5242V40.913C142.952 40.4708 143.067 40.1348 143.297 39.9049C143.527 39.675 143.845 39.56 144.252 39.56C144.676 39.56 144.995 39.675 145.207 39.9049C145.437 40.1348 145.552 40.4708 145.552 40.913V42.9822L145.26 42.5047C145.649 41.5143 146.259 40.7715 147.09 40.2763C147.922 39.7634 148.877 39.507 149.955 39.507C150.981 39.507 151.83 39.7015 152.502 40.0906C153.192 40.462 153.705 41.0368 154.041 41.8149C154.377 42.5754 154.545 43.5392 154.545 44.7065V51.5242C154.545 51.9486 154.43 52.2846 154.2 52.5322C153.97 52.7621 153.643 52.8771 153.218 52.8771C152.776 52.8771 152.44 52.7621 152.21 52.5322C151.98 52.2846 151.865 51.9486 151.865 51.5242V44.8656C151.865 43.7515 151.644 42.9379 151.202 42.4251C150.778 41.9122 150.106 41.6558 149.186 41.6558C148.107 41.6558 147.241 41.9918 146.586 42.6638C145.95 43.3359 145.631 44.2378 145.631 45.3697V51.5242C145.631 52.4261 145.18 52.8771 144.278 52.8771ZM164.126 52.9832C163.383 52.9832 162.623 52.9213 161.845 52.7975C161.084 52.6914 160.35 52.5322 159.643 52.32C158.953 52.1078 158.334 51.8425 157.786 51.5242C157.397 51.3119 157.123 51.0378 156.963 50.7018C156.804 50.3481 156.742 49.9944 156.778 49.6407C156.831 49.287 156.963 48.9775 157.176 48.7122C157.406 48.4292 157.688 48.2524 158.024 48.1816C158.378 48.0932 158.767 48.1551 159.192 48.3673C159.917 48.7741 160.704 49.0748 161.553 49.2693C162.419 49.4638 163.277 49.5611 164.126 49.5611C165.417 49.5611 166.337 49.3666 166.885 48.9775C167.433 48.5707 167.707 48.0667 167.707 47.4654C167.707 46.9525 167.513 46.5458 167.124 46.2451C166.735 45.9444 166.054 45.688 165.081 45.4758L162.083 44.8391C160.385 44.4854 159.121 43.8841 158.29 43.0352C157.476 42.1686 157.069 41.0368 157.069 39.6396C157.069 38.7554 157.255 37.9507 157.627 37.2256C157.998 36.5005 158.52 35.8726 159.192 35.3421C159.864 34.8115 160.66 34.4048 161.579 34.1218C162.517 33.8388 163.542 33.6974 164.656 33.6974C165.647 33.6974 166.62 33.8211 167.575 34.0687C168.53 34.2987 169.37 34.6435 170.095 35.1033C170.448 35.3156 170.687 35.5897 170.811 35.9257C170.952 36.244 170.997 36.5712 170.944 36.9072C170.908 37.2256 170.776 37.5085 170.546 37.7561C170.333 38.0037 170.059 38.1629 169.723 38.2336C169.387 38.3044 168.981 38.2248 168.503 37.9949C167.919 37.6942 167.3 37.4732 166.646 37.3317C165.992 37.1902 165.32 37.1195 164.63 37.1195C163.887 37.1195 163.251 37.2167 162.72 37.4113C162.207 37.6058 161.809 37.8799 161.526 38.2336C161.261 38.5873 161.128 38.9941 161.128 39.4539C161.128 39.9668 161.314 40.3824 161.685 40.7007C162.057 41.0191 162.702 41.2755 163.622 41.4701L166.62 42.1067C168.353 42.4781 169.644 43.0794 170.493 43.9106C171.342 44.7242 171.766 45.803 171.766 47.1471C171.766 48.0313 171.589 48.836 171.235 49.5611C170.882 50.2685 170.369 50.8787 169.697 51.3915C169.025 51.9044 168.22 52.3023 167.283 52.5853C166.345 52.8506 165.293 52.9832 164.126 52.9832ZM184.383 57.7052C183.729 57.7052 183.234 57.5283 182.898 57.1746C182.562 56.8386 182.394 56.3346 182.394 55.6625V50.2508H182.686C182.403 51.0644 181.863 51.7276 181.067 52.2404C180.289 52.7356 179.387 52.9832 178.362 52.9832C177.23 52.9832 176.23 52.7091 175.364 52.1608C174.515 51.6126 173.852 50.8256 173.374 49.7999C172.897 48.7741 172.658 47.5627 172.658 46.1655C172.658 44.7684 172.897 43.5658 173.374 42.5577C173.852 41.5496 174.515 40.7715 175.364 40.2232C176.23 39.675 177.23 39.4009 178.362 39.4009C179.405 39.4009 180.325 39.6662 181.12 40.1967C181.934 40.7096 182.465 41.3905 182.712 42.2394L182.42 43.274V41.4701C182.42 40.8157 182.588 40.3205 182.924 39.9845C183.278 39.6308 183.773 39.4539 184.41 39.4539C185.047 39.4539 185.533 39.6308 185.869 39.9845C186.223 40.3205 186.4 40.8157 186.4 41.4701V55.6625C186.4 56.3346 186.223 56.8386 185.869 57.1746C185.515 57.5283 185.02 57.7052 184.383 57.7052ZM179.555 49.9855C180.139 49.9855 180.643 49.8441 181.067 49.5611C181.492 49.2781 181.828 48.8625 182.075 48.3143C182.323 47.7484 182.447 47.0321 182.447 46.1655C182.447 44.8745 182.182 43.9283 181.651 43.327C181.12 42.708 180.422 42.3985 179.555 42.3985C178.989 42.3985 178.485 42.5312 178.043 42.7965C177.619 43.0617 177.283 43.4773 177.035 44.0433C176.805 44.5915 176.69 45.2989 176.69 46.1655C176.69 47.4565 176.956 48.4204 177.486 49.0571C178.017 49.6761 178.706 49.9855 179.555 49.9855ZM193.492 52.9832C192.395 52.9832 191.485 52.7798 190.759 52.3731C190.034 51.9663 189.495 51.3562 189.141 50.5426C188.805 49.7114 188.637 48.6857 188.637 47.4654V41.4701C188.637 40.798 188.805 40.294 189.141 39.958C189.495 39.6219 189.99 39.4539 190.627 39.4539C191.263 39.4539 191.759 39.6219 192.112 39.958C192.466 40.294 192.643 40.798 192.643 41.4701V47.5715C192.643 48.3497 192.802 48.9333 193.12 49.3223C193.439 49.6937 193.943 49.8794 194.633 49.8794C195.393 49.8794 196.012 49.6142 196.489 49.0836C196.985 48.5354 197.232 47.8191 197.232 46.9348V41.4701C197.232 40.798 197.4 40.294 197.736 39.958C198.09 39.6219 198.585 39.4539 199.222 39.4539C199.876 39.4539 200.371 39.6219 200.707 39.958C201.061 40.294 201.238 40.798 201.238 41.4701V50.8875C201.238 52.2493 200.592 52.9302 199.301 52.9302C198.665 52.9302 198.178 52.7533 197.842 52.3996C197.506 52.0459 197.338 51.5419 197.338 50.8875V49.1101L197.736 50.1447C197.347 51.0467 196.79 51.7452 196.065 52.2404C195.34 52.7356 194.482 52.9832 193.492 52.9832ZM207.945 52.9832C206.99 52.9832 206.133 52.7975 205.372 52.4261C204.612 52.0547 204.019 51.5507 203.595 50.914C203.17 50.2774 202.958 49.5611 202.958 48.7653C202.958 47.8103 203.206 47.0586 203.701 46.5104C204.196 45.9444 205.001 45.5465 206.115 45.3166C207.229 45.069 208.706 44.9452 210.545 44.9452H211.951V47.0144H210.572C209.67 47.0144 208.936 47.0675 208.37 47.1736C207.822 47.262 207.424 47.4212 207.176 47.6511C206.946 47.881 206.831 48.1993 206.831 48.6061C206.831 49.1013 206.999 49.508 207.335 49.8264C207.689 50.1447 208.193 50.3039 208.847 50.3039C209.36 50.3039 209.811 50.1889 210.2 49.959C210.607 49.7114 210.925 49.3842 211.155 48.9775C211.385 48.553 211.5 48.0755 211.5 47.545V44.4943C211.5 43.7161 211.323 43.1679 210.97 42.8495C210.616 42.5135 210.015 42.3455 209.166 42.3455C208.688 42.3455 208.167 42.4074 207.601 42.5312C207.052 42.6373 206.442 42.823 205.77 43.0883C205.381 43.2651 205.036 43.3093 204.736 43.2209C204.435 43.1148 204.205 42.9379 204.046 42.6903C203.887 42.4251 203.807 42.1421 203.807 41.8415C203.807 41.5231 203.895 41.2225 204.072 40.9395C204.249 40.6388 204.541 40.4178 204.948 40.2763C205.779 39.9403 206.557 39.7104 207.282 39.5866C208.025 39.4628 208.706 39.4009 209.325 39.4009C210.687 39.4009 211.801 39.6043 212.667 40.011C213.552 40.4001 214.215 41.0102 214.657 41.8415C215.099 42.655 215.32 43.7073 215.32 44.9983V50.8875C215.32 51.5419 215.161 52.0459 214.843 52.3996C214.524 52.7533 214.065 52.9302 213.463 52.9302C212.862 52.9302 212.393 52.7533 212.057 52.3996C211.739 52.0459 211.58 51.5419 211.58 50.8875V49.906L211.765 50.0651C211.659 50.6664 211.429 51.1882 211.076 51.6303C210.74 52.0547 210.306 52.3908 209.776 52.6384C209.245 52.8683 208.635 52.9832 207.945 52.9832ZM222.579 52.9832C221.448 52.9832 220.448 52.7091 219.582 52.1608C218.733 51.6126 218.07 50.8256 217.592 49.7999C217.115 48.7741 216.876 47.5627 216.876 46.1655C216.876 44.7684 217.115 43.5658 217.592 42.5577C218.07 41.5496 218.733 40.7715 219.582 40.2232C220.448 39.675 221.448 39.4009 222.579 39.4009C223.605 39.4009 224.507 39.6485 225.285 40.1437C226.081 40.6388 226.62 41.2844 226.903 42.0802H226.612V35.7931C226.612 35.121 226.78 34.617 227.116 34.281C227.452 33.9273 227.947 33.7504 228.601 33.7504C229.238 33.7504 229.733 33.9273 230.087 34.281C230.441 34.617 230.617 35.121 230.617 35.7931V50.8875C230.617 51.5419 230.441 52.0459 230.087 52.3996C229.751 52.7533 229.264 52.9302 228.628 52.9302C227.991 52.9302 227.496 52.7533 227.142 52.3996C226.806 52.0459 226.638 51.5419 226.638 50.8875V49.0836L226.93 50.1182C226.682 50.9848 226.152 51.6833 225.338 52.2139C224.542 52.7268 223.623 52.9832 222.579 52.9832ZM223.773 49.9855C224.357 49.9855 224.861 49.8441 225.285 49.5611C225.71 49.2781 226.046 48.8625 226.293 48.3143C226.541 47.7484 226.665 47.0321 226.665 46.1655C226.665 44.8745 226.399 43.9283 225.869 43.327C225.338 42.708 224.64 42.3985 223.773 42.3985C223.207 42.3985 222.703 42.5312 222.261 42.7965C221.837 43.0617 221.501 43.4773 221.253 44.0433C221.023 44.5915 220.908 45.2989 220.908 46.1655C220.908 47.4565 221.173 48.4204 221.704 49.0571C222.235 49.6761 222.924 49.9855 223.773 49.9855ZM234.845 52.824C234.137 52.824 233.571 52.6118 233.147 52.1874C232.74 51.7629 232.537 51.2147 232.537 50.5426C232.537 49.8883 232.74 49.3577 233.147 48.951C233.571 48.5265 234.137 48.3143 234.845 48.3143C235.552 48.3143 236.1 48.5265 236.489 48.951C236.896 49.3577 237.1 49.8883 237.1 50.5426C237.1 51.2147 236.896 51.7629 236.489 52.1874C236.1 52.6118 235.552 52.824 234.845 52.824Z" fill="white"/>
<path d="M96.4532 52.8771C96.0111 52.8771 95.6662 52.7533 95.4186 52.5057C95.1887 52.2581 95.0737 51.9133 95.0737 51.4711V35.2094C95.0737 34.7496 95.1887 34.4048 95.4186 34.1749C95.6662 33.9273 96.0111 33.8035 96.4532 33.8035C96.8953 33.8035 97.2313 33.9273 97.4613 34.1749C97.7089 34.4048 97.8326 34.7496 97.8326 35.2094V51.4711C97.8326 51.9133 97.7177 52.2581 97.4878 52.5057C97.2579 52.7533 96.913 52.8771 96.4532 52.8771ZM102.756 52.8771C102.314 52.8771 101.969 52.7533 101.721 52.5057C101.491 52.2581 101.376 51.9133 101.376 51.4711V35.2094C101.376 34.7496 101.491 34.4048 101.721 34.1749C101.969 33.9273 102.314 33.8035 102.756 33.8035C103.198 33.8035 103.534 33.9273 103.764 34.1749C104.011 34.4048 104.135 34.7496 104.135 35.2094V51.4711C104.135 51.9133 104.02 52.2581 103.79 52.5057C103.56 52.7533 103.215 52.8771 102.756 52.8771ZM113.621 52.8771C113.179 52.8771 112.834 52.7533 112.586 52.5057C112.356 52.2581 112.242 51.9133 112.242 51.4711V36.2971H106.618C106.246 36.2971 105.954 36.1998 105.742 36.0053C105.53 35.7931 105.424 35.5013 105.424 35.1299C105.424 34.7585 105.53 34.4755 105.742 34.281C105.954 34.0864 106.246 33.9892 106.618 33.9892H120.598C120.987 33.9892 121.288 34.0864 121.5 34.281C121.712 34.4755 121.818 34.7585 121.818 35.1299C121.818 35.5013 121.712 35.7931 121.5 36.0053C121.288 36.1998 120.987 36.2971 120.598 36.2971H114.974V51.4711C114.974 51.9133 114.859 52.2581 114.629 52.5057C114.417 52.7533 114.081 52.8771 113.621 52.8771ZM125.171 52.8506C124.747 52.8506 124.419 52.7268 124.189 52.4792C123.96 52.2139 123.845 51.8514 123.845 51.3915V41.0456C123.845 40.5858 123.96 40.2321 124.189 39.9845C124.419 39.7369 124.747 39.6131 125.171 39.6131C125.595 39.6131 125.923 39.7369 126.153 39.9845C126.4 40.2321 126.524 40.5858 126.524 41.0456V51.3915C126.524 51.8514 126.409 52.2139 126.179 52.4792C125.949 52.7268 125.613 52.8506 125.171 52.8506ZM125.171 36.8542C124.64 36.8542 124.225 36.7215 123.924 36.4563C123.641 36.191 123.5 35.8196 123.5 35.3421C123.5 34.8469 123.641 34.4755 123.924 34.2279C124.225 33.9626 124.64 33.83 125.171 33.83C125.702 33.83 126.108 33.9626 126.391 34.2279C126.692 34.4755 126.842 34.8469 126.842 35.3421C126.842 35.8196 126.692 36.191 126.391 36.4563C126.108 36.7215 125.702 36.8542 125.171 36.8542ZM133.638 52.9302C132.736 52.9302 131.922 52.7533 131.197 52.3996C130.49 52.0459 129.933 51.5684 129.526 50.9671C129.119 50.3658 128.916 49.6849 128.916 48.9244C128.916 47.9694 129.155 47.2178 129.632 46.6695C130.127 46.1036 130.932 45.7057 132.046 45.4758C133.178 45.2282 134.699 45.1044 136.609 45.1044H137.856V46.7491H136.635C135.362 46.7491 134.354 46.811 133.611 46.9348C132.868 47.0586 132.338 47.2708 132.02 47.5715C131.719 47.8545 131.569 48.2524 131.569 48.7653C131.569 49.4373 131.799 49.9855 132.258 50.41C132.718 50.8168 133.355 51.0201 134.168 51.0201C134.823 51.0201 135.397 50.8698 135.893 50.5692C136.388 50.2508 136.777 49.8264 137.06 49.2958C137.361 48.7653 137.511 48.1551 137.511 47.4654V44.4147C137.511 43.4066 137.299 42.6815 136.874 42.2394C136.45 41.7972 135.751 41.5762 134.778 41.5762C134.213 41.5762 133.62 41.6469 133.001 41.7884C132.4 41.9299 131.772 42.1686 131.118 42.5047C130.817 42.6461 130.561 42.6903 130.348 42.6373C130.136 42.5842 129.968 42.4693 129.844 42.2924C129.72 42.0979 129.65 41.8945 129.632 41.6823C129.632 41.4524 129.685 41.2313 129.791 41.0191C129.915 40.8069 130.118 40.6477 130.401 40.5416C131.18 40.1702 131.949 39.9049 132.709 39.7457C133.47 39.5866 134.186 39.507 134.858 39.507C136.043 39.507 137.016 39.6927 137.776 40.0641C138.554 40.4355 139.129 41.0014 139.5 41.7619C139.872 42.5223 140.058 43.5039 140.058 44.7065V51.5242C140.058 51.9486 139.951 52.2846 139.739 52.5322C139.527 52.7621 139.218 52.8771 138.811 52.8771C138.422 52.8771 138.112 52.7621 137.882 52.5322C137.652 52.2846 137.537 51.9486 137.537 51.5242V49.7999H137.776C137.635 50.4542 137.369 51.0201 136.98 51.4976C136.609 51.9575 136.14 52.3112 135.574 52.5588C135.008 52.8064 134.363 52.9302 133.638 52.9302ZM144.278 52.8771C143.854 52.8771 143.527 52.7621 143.297 52.5322C143.067 52.2846 142.952 51.9486 142.952 51.5242V40.913C142.952 40.4708 143.067 40.1348 143.297 39.9049C143.527 39.675 143.845 39.56 144.252 39.56C144.676 39.56 144.995 39.675 145.207 39.9049C145.437 40.1348 145.552 40.4708 145.552 40.913V42.9822L145.26 42.5047C145.649 41.5143 146.259 40.7715 147.09 40.2763C147.922 39.7634 148.877 39.507 149.955 39.507C150.981 39.507 151.83 39.7015 152.502 40.0906C153.192 40.462 153.705 41.0368 154.041 41.8149C154.377 42.5754 154.545 43.5392 154.545 44.7065V51.5242C154.545 51.9486 154.43 52.2846 154.2 52.5322C153.97 52.7621 153.643 52.8771 153.218 52.8771C152.776 52.8771 152.44 52.7621 152.21 52.5322C151.98 52.2846 151.865 51.9486 151.865 51.5242V44.8656C151.865 43.7515 151.644 42.9379 151.202 42.4251C150.778 41.9122 150.106 41.6558 149.186 41.6558C148.107 41.6558 147.241 41.9918 146.586 42.6638C145.95 43.3359 145.631 44.2378 145.631 45.3697V51.5242C145.631 52.4261 145.18 52.8771 144.278 52.8771ZM164.126 52.9832C163.383 52.9832 162.623 52.9213 161.845 52.7975C161.084 52.6914 160.35 52.5322 159.643 52.32C158.953 52.1078 158.334 51.8425 157.786 51.5242C157.397 51.3119 157.123 51.0378 156.963 50.7018C156.804 50.3481 156.742 49.9944 156.778 49.6407C156.831 49.287 156.963 48.9775 157.176 48.7122C157.406 48.4292 157.688 48.2524 158.024 48.1816C158.378 48.0932 158.767 48.1551 159.192 48.3673C159.917 48.7741 160.704 49.0748 161.553 49.2693C162.419 49.4638 163.277 49.5611 164.126 49.5611C165.417 49.5611 166.337 49.3666 166.885 48.9775C167.433 48.5707 167.707 48.0667 167.707 47.4654C167.707 46.9525 167.513 46.5458 167.124 46.2451C166.735 45.9444 166.054 45.688 165.081 45.4758L162.083 44.8391C160.385 44.4854 159.121 43.8841 158.29 43.0352C157.476 42.1686 157.069 41.0368 157.069 39.6396C157.069 38.7554 157.255 37.9507 157.627 37.2256C157.998 36.5005 158.52 35.8726 159.192 35.3421C159.864 34.8115 160.66 34.4048 161.579 34.1218C162.517 33.8388 163.542 33.6974 164.656 33.6974C165.647 33.6974 166.62 33.8211 167.575 34.0687C168.53 34.2987 169.37 34.6435 170.095 35.1033C170.448 35.3156 170.687 35.5897 170.811 35.9257C170.952 36.244 170.997 36.5712 170.944 36.9072C170.908 37.2256 170.776 37.5085 170.546 37.7561C170.333 38.0037 170.059 38.1629 169.723 38.2336C169.387 38.3044 168.981 38.2248 168.503 37.9949C167.919 37.6942 167.3 37.4732 166.646 37.3317C165.992 37.1902 165.32 37.1195 164.63 37.1195C163.887 37.1195 163.251 37.2167 162.72 37.4113C162.207 37.6058 161.809 37.8799 161.526 38.2336C161.261 38.5873 161.128 38.9941 161.128 39.4539C161.128 39.9668 161.314 40.3824 161.685 40.7007C162.057 41.0191 162.702 41.2755 163.622 41.4701L166.62 42.1067C168.353 42.4781 169.644 43.0794 170.493 43.9106C171.342 44.7242 171.766 45.803 171.766 47.1471C171.766 48.0313 171.589 48.836 171.235 49.5611C170.882 50.2685 170.369 50.8787 169.697 51.3915C169.025 51.9044 168.22 52.3023 167.283 52.5853C166.345 52.8506 165.293 52.9832 164.126 52.9832ZM184.383 57.7052C183.729 57.7052 183.234 57.5283 182.898 57.1746C182.562 56.8386 182.394 56.3346 182.394 55.6625V50.2508H182.686C182.403 51.0644 181.863 51.7276 181.067 52.2404C180.289 52.7356 179.387 52.9832 178.362 52.9832C177.23 52.9832 176.23 52.7091 175.364 52.1608C174.515 51.6126 173.852 50.8256 173.374 49.7999C172.897 48.7741 172.658 47.5627 172.658 46.1655C172.658 44.7684 172.897 43.5658 173.374 42.5577C173.852 41.5496 174.515 40.7715 175.364 40.2232C176.23 39.675 177.23 39.4009 178.362 39.4009C179.405 39.4009 180.325 39.6662 181.12 40.1967C181.934 40.7096 182.465 41.3905 182.712 42.2394L182.42 43.274V41.4701C182.42 40.8157 182.588 40.3205 182.924 39.9845C183.278 39.6308 183.773 39.4539 184.41 39.4539C185.047 39.4539 185.533 39.6308 185.869 39.9845C186.223 40.3205 186.4 40.8157 186.4 41.4701V55.6625C186.4 56.3346 186.223 56.8386 185.869 57.1746C185.515 57.5283 185.02 57.7052 184.383 57.7052ZM179.555 49.9855C180.139 49.9855 180.643 49.8441 181.067 49.5611C181.492 49.2781 181.828 48.8625 182.075 48.3143C182.323 47.7484 182.447 47.0321 182.447 46.1655C182.447 44.8745 182.182 43.9283 181.651 43.327C181.12 42.708 180.422 42.3985 179.555 42.3985C178.989 42.3985 178.485 42.5312 178.043 42.7965C177.619 43.0617 177.283 43.4773 177.035 44.0433C176.805 44.5915 176.69 45.2989 176.69 46.1655C176.69 47.4565 176.956 48.4204 177.486 49.0571C178.017 49.6761 178.706 49.9855 179.555 49.9855ZM193.492 52.9832C192.395 52.9832 191.485 52.7798 190.759 52.3731C190.034 51.9663 189.495 51.3562 189.141 50.5426C188.805 49.7114 188.637 48.6857 188.637 47.4654V41.4701C188.637 40.798 188.805 40.294 189.141 39.958C189.495 39.6219 189.99 39.4539 190.627 39.4539C191.263 39.4539 191.759 39.6219 192.112 39.958C192.466 40.294 192.643 40.798 192.643 41.4701V47.5715C192.643 48.3497 192.802 48.9333 193.12 49.3223C193.439 49.6937 193.943 49.8794 194.633 49.8794C195.393 49.8794 196.012 49.6142 196.489 49.0836C196.985 48.5354 197.232 47.8191 197.232 46.9348V41.4701C197.232 40.798 197.4 40.294 197.736 39.958C198.09 39.6219 198.585 39.4539 199.222 39.4539C199.876 39.4539 200.371 39.6219 200.707 39.958C201.061 40.294 201.238 40.798 201.238 41.4701V50.8875C201.238 52.2493 200.592 52.9302 199.301 52.9302C198.665 52.9302 198.178 52.7533 197.842 52.3996C197.506 52.0459 197.338 51.5419 197.338 50.8875V49.1101L197.736 50.1447C197.347 51.0467 196.79 51.7452 196.065 52.2404C195.34 52.7356 194.482 52.9832 193.492 52.9832ZM207.945 52.9832C206.99 52.9832 206.133 52.7975 205.372 52.4261C204.612 52.0547 204.019 51.5507 203.595 50.914C203.17 50.2774 202.958 49.5611 202.958 48.7653C202.958 47.8103 203.206 47.0586 203.701 46.5104C204.196 45.9444 205.001 45.5465 206.115 45.3166C207.229 45.069 208.706 44.9452 210.545 44.9452H211.951V47.0144H210.572C209.67 47.0144 208.936 47.0675 208.37 47.1736C207.822 47.262 207.424 47.4212 207.176 47.6511C206.946 47.881 206.831 48.1993 206.831 48.6061C206.831 49.1013 206.999 49.508 207.335 49.8264C207.689 50.1447 208.193 50.3039 208.847 50.3039C209.36 50.3039 209.811 50.1889 210.2 49.959C210.607 49.7114 210.925 49.3842 211.155 48.9775C211.385 48.553 211.5 48.0755 211.5 47.545V44.4943C211.5 43.7161 211.323 43.1679 210.97 42.8495C210.616 42.5135 210.015 42.3455 209.166 42.3455C208.688 42.3455 208.167 42.4074 207.601 42.5312C207.052 42.6373 206.442 42.823 205.77 43.0883C205.381 43.2651 205.036 43.3093 204.736 43.2209C204.435 43.1148 204.205 42.9379 204.046 42.6903C203.887 42.4251 203.807 42.1421 203.807 41.8415C203.807 41.5231 203.895 41.2225 204.072 40.9395C204.249 40.6388 204.541 40.4178 204.948 40.2763C205.779 39.9403 206.557 39.7104 207.282 39.5866C208.025 39.4628 208.706 39.4009 209.325 39.4009C210.687 39.4009 211.801 39.6043 212.667 40.011C213.552 40.4001 214.215 41.0102 214.657 41.8415C215.099 42.655 215.32 43.7073 215.32 44.9983V50.8875C215.32 51.5419 215.161 52.0459 214.843 52.3996C214.524 52.7533 214.065 52.9302 213.463 52.9302C212.862 52.9302 212.393 52.7533 212.057 52.3996C211.739 52.0459 211.58 51.5419 211.58 50.8875V49.906L211.765 50.0651C211.659 50.6664 211.429 51.1882 211.076 51.6303C210.74 52.0547 210.306 52.3908 209.776 52.6384C209.245 52.8683 208.635 52.9832 207.945 52.9832ZM222.579 52.9832C221.448 52.9832 220.448 52.7091 219.582 52.1608C218.733 51.6126 218.07 50.8256 217.592 49.7999C217.115 48.7741 216.876 47.5627 216.876 46.1655C216.876 44.7684 217.115 43.5658 217.592 42.5577C218.07 41.5496 218.733 40.7715 219.582 40.2232C220.448 39.675 221.448 39.4009 222.579 39.4009C223.605 39.4009 224.507 39.6485 225.285 40.1437C226.081 40.6388 226.62 41.2844 226.903 42.0802H226.612V35.7931C226.612 35.121 226.78 34.617 227.116 34.281C227.452 33.9273 227.947 33.7504 228.601 33.7504C229.238 33.7504 229.733 33.9273 230.087 34.281C230.441 34.617 230.617 35.121 230.617 35.7931V50.8875C230.617 51.5419 230.441 52.0459 230.087 52.3996C229.751 52.7533 229.264 52.9302 228.628 52.9302C227.991 52.9302 227.496 52.7533 227.142 52.3996C226.806 52.0459 226.638 51.5419 226.638 50.8875V49.0836L226.93 50.1182C226.682 50.9848 226.152 51.6833 225.338 52.2139C224.542 52.7268 223.623 52.9832 222.579 52.9832ZM223.773 49.9855C224.357 49.9855 224.861 49.8441 225.285 49.5611C225.71 49.2781 226.046 48.8625 226.293 48.3143C226.541 47.7484 226.665 47.0321 226.665 46.1655C226.665 44.8745 226.399 43.9283 225.869 43.327C225.338 42.708 224.64 42.3985 223.773 42.3985C223.207 42.3985 222.703 42.5312 222.261 42.7965C221.837 43.0617 221.501 43.4773 221.253 44.0433C221.023 44.5915 220.908 45.2989 220.908 46.1655C220.908 47.4565 221.173 48.4204 221.704 49.0571C222.235 49.6761 222.924 49.9855 223.773 49.9855ZM234.845 52.824C234.137 52.824 233.571 52.6118 233.147 52.1874C232.74 51.7629 232.537 51.2147 232.537 50.5426C232.537 49.8883 232.74 49.3577 233.147 48.951C233.571 48.5265 234.137 48.3143 234.845 48.3143C235.552 48.3143 236.1 48.5265 236.489 48.951C236.896 49.3577 237.1 49.8883 237.1 50.5426C237.1 51.2147 236.896 51.7629 236.489 52.1874C236.1 52.6118 235.552 52.824 234.845 52.824Z" fill="white"/>
<defs>
<filter id="filter0_d_164_1430" x="0.689072" y="0.344536" width="122.68" height="122.68" filterUnits="userSpaceOnUse" color-interpolation-filters="sRGB">
<feFlood flood-opacity="0" result="BackgroundImageFix"/>
<feColorMatrix in="SourceAlpha" type="matrix" values="0 0 0 0 0 0 0 0 0 0 0 0 0 0 0 0 0 0 127 0" result="hardAlpha"/>
<feOffset dy="18.6555"/>
<feGaussianBlur stdDeviation="18.6555"/>
<feComposite in2="hardAlpha" operator="out"/>
<feColorMatrix type="matrix" values="0 0 0 0 0 0 0 0 0 0 0 0 0 0 0 0 0 0 0.2 0"/>
<feBlend mode="normal" in2="BackgroundImageFix" result="effect1_dropShadow_164_1430"/>
<feBlend mode="normal" in="SourceGraphic" in2="effect1_dropShadow_164_1430" result="shape"/>
</filter>
</defs>
</svg>
